<svg width="224" height="23" viewBox="0 0 224 23" fill="none" xmlns="http://www.w3.org/2000/svg">
<path d="M16.6235 2.48344C17.8522 2.48698 19.0297 2.95826 19.8986 3.79438C20.7675 4.6305 21.2572 5.7635 21.2609 6.94594V15.87C21.2572 17.0524 20.7675 18.1854 19.8986 19.0216C19.0297 19.8577 17.8522 20.329 16.6235 20.3325H7.34955C6.12075 20.329 4.94333 19.8577 4.07443 19.0216C3.20554 18.1854 2.71577 17.0524 2.7121 15.87V6.94594C2.71577 5.7635 3.20554 4.6305 4.07443 3.79438C4.94333 2.95826 6.12075 2.48698 7.34955 2.48344H16.6235ZM16.6235 0.69873H7.34955C3.7788 0.69873 0.857422 3.50991 0.857422 6.94594V15.87C0.857422 19.306 3.7788 22.1172 7.34955 22.1172H16.6235C20.1942 22.1172 23.1156 19.306 23.1156 15.87V6.94594C23.1156 3.50991 20.1942 0.69873 16.6235 0.69873Z" fill="white"/>
<path d="M18.0145 6.94635C17.7394 6.94635 17.4704 6.86784 17.2416 6.72075C17.0129 6.57366 16.8346 6.36459 16.7293 6.11998C16.624 5.87537 16.5964 5.60621 16.6501 5.34654C16.7038 5.08687 16.8363 4.84834 17.0308 4.66113C17.2254 4.47391 17.4732 4.34642 17.7431 4.29477C18.013 4.24311 18.2927 4.26962 18.5469 4.37094C18.8011 4.47226 19.0183 4.64384 19.1712 4.86398C19.324 5.08412 19.4056 5.34294 19.4056 5.6077C19.406 5.7836 19.3703 5.95784 19.3005 6.12043C19.2308 6.28301 19.1283 6.43073 18.9991 6.55511C18.8698 6.67949 18.7163 6.77808 18.5473 6.84522C18.3784 6.91236 18.1973 6.94673 18.0145 6.94635ZM11.9864 7.83847C12.7202 7.83847 13.4374 8.04784 14.0475 8.44011C14.6576 8.83237 15.1331 9.38992 15.4139 10.0422C15.6947 10.6945 15.7681 11.4123 15.625 12.1048C15.4818 12.7973 15.1285 13.4334 14.6097 13.9327C14.0908 14.4319 13.4298 14.7719 12.7102 14.9097C11.9905 15.0474 11.2446 14.9767 10.5667 14.7065C9.88883 14.4363 9.30943 13.9788 8.90178 13.3917C8.49414 12.8046 8.27656 12.1144 8.27656 11.4084C8.27761 10.4619 8.66881 9.55446 9.36431 8.88519C10.0598 8.21592 11.0028 7.83948 11.9864 7.83847ZM11.9864 6.05376C10.8859 6.05376 9.81001 6.3678 8.89492 6.95617C7.97984 7.54455 7.26662 8.38082 6.84545 9.35925C6.42429 10.3377 6.31409 11.4143 6.5288 12.453C6.74351 13.4917 7.27348 14.4458 8.05169 15.1947C8.82991 15.9435 9.82141 16.4535 10.9008 16.6601C11.9802 16.8667 13.0991 16.7607 14.1159 16.3554C15.1327 15.9501 16.0017 15.2638 16.6132 14.3832C17.2246 13.5027 17.551 12.4674 17.551 11.4084C17.551 9.98824 16.9647 8.62627 15.9211 7.62209C14.8776 6.6179 13.4622 6.05376 11.9864 6.05376Z" fill="white"/>
<path fill-rule="evenodd" clip-rule="evenodd" d="M73.1157 11.4727C73.1157 5.52434 67.9664 0.701172 61.6157 0.701172C55.2651 0.701172 50.1157 5.52434 50.1157 11.4727C50.1157 16.8489 54.3204 21.3052 59.8188 22.114V14.5874H56.8982V11.4727H59.8188V9.09963C59.8188 6.40049 61.5361 4.90834 64.1627 4.90834C65.421 4.90834 66.7373 5.11896 66.7373 5.11896V7.77002H65.2865C63.8587 7.77002 63.4121 8.60001 63.4121 9.45308V11.4727H66.6013L66.092 14.5874H63.4126V22.115C68.911 21.3066 73.1157 16.8504 73.1157 11.4727Z" fill="white"/>
<path d="M121.587 4.85951C120.781 5.20922 119.929 5.43962 119.057 5.54342C119.974 5.00719 120.663 4.1553 120.995 3.14753C120.129 3.65379 119.183 4.00901 118.197 4.19796C117.782 3.76327 117.283 3.41747 116.73 3.18156C116.177 2.94566 115.582 2.82458 114.98 2.82569C112.546 2.82569 110.576 4.76565 110.576 7.15706C110.574 7.4897 110.613 7.82135 110.69 8.14492C108.944 8.06315 107.235 7.61818 105.671 6.83847C104.108 6.05877 102.724 4.9615 101.609 3.61687C101.218 4.27579 101.011 5.0276 101.01 5.79373C101.01 7.29563 101.794 8.6232 102.979 9.40097C102.277 9.38434 101.59 9.1988 100.975 8.86011V8.91375C100.975 11.0146 102.496 12.7624 104.509 13.1602C104.131 13.261 103.741 13.3121 103.349 13.3122C103.071 13.3127 102.794 13.2857 102.521 13.2317C103.081 14.9526 104.709 16.2042 106.638 16.24C105.071 17.4473 103.146 18.0998 101.167 18.095C100.816 18.0945 100.465 18.0736 100.116 18.0324C102.129 19.3172 104.47 19.9968 106.859 19.9903C114.971 19.9903 119.403 13.3882 119.403 7.66217C119.403 7.47443 119.398 7.28669 119.389 7.10342C120.249 6.49196 120.994 5.7321 121.587 4.85951Z" fill="white"/>
<path d="M168.597 0.533203H150.445C149.453 0.533203 148.586 1.24687 148.586 2.22708V20.4193C148.586 21.4049 149.453 22.2831 150.445 22.2831H168.592C169.589 22.2831 170.336 21.3991 170.336 20.4193V2.22708C170.342 1.24687 169.589 0.533203 168.597 0.533203ZM155.328 18.6628H152.213V8.9749H155.328V18.6628ZM153.878 7.50192H153.856C152.859 7.50192 152.213 6.75961 152.213 5.83038C152.213 4.88416 152.876 4.15932 153.895 4.15932C154.915 4.15932 155.539 4.87882 155.561 5.83038C155.56 6.75961 154.915 7.50192 153.878 7.50192ZM166.716 18.6628H163.6V13.3657C163.6 12.0966 163.147 11.2295 162.019 11.2295C161.158 11.2295 160.648 11.8121 160.422 12.3796C160.337 12.5835 160.314 12.8612 160.314 13.1448V18.6628H157.198V8.9749H160.314V10.3231C160.767 9.6774 161.476 8.74817 163.124 8.74817C165.169 8.74817 166.717 10.0964 166.717 13.003L166.716 18.6628Z" fill="white"/>
<path d="M223.169 6.10343C223.169 3.87693 221.488 2.08583 219.411 2.08583C216.597 1.95768 213.728 1.9082 210.795 1.9082H209.881C206.956 1.9082 204.081 1.95768 201.268 2.08632C199.196 2.08632 197.514 3.88732 197.514 6.11382C197.388 7.87473 197.334 9.63614 197.337 11.3976C197.332 13.159 197.389 14.922 197.509 16.6867C197.509 18.9132 199.19 20.7192 201.263 20.7192C204.218 20.8528 207.25 20.9121 210.333 20.9072C213.421 20.9171 216.445 20.8544 219.404 20.7192C221.481 20.7192 223.162 18.9132 223.162 16.6867C223.284 14.9204 223.34 13.159 223.335 11.3926C223.346 9.6312 223.291 7.86814 223.169 6.10343ZM207.85 16.2513V6.52894L215.214 11.3877L207.85 16.2513Z" fill="white"/>
</svg>
